<svg width="169" height="46" viewBox="0 0 169 46" fill="none" xmlns="http://www.w3.org/2000/svg">
<g id="logo/plani">
<path id="Vector" d="M112.042 10.2733C109.667 8.52084 106.12 7.62646 101.509 7.62646C91.8218 7.62646 87.3076 11.2221 87.3076 18.9451V38.1742H96.3722V19.1566C96.3722 15.7 98.2456 13.7179 101.509 13.7179C104.772 13.7179 106.645 15.7544 106.645 19.1566V38.1742H115.801V18.9451C115.801 14.9748 114.574 12.1346 112.042 10.2673V10.2733Z" fill="white"/>
<path id="Vector_2" d="M65.8601 7.63251C61.3338 7.63251 57.9014 8.0797 54.759 9.07076V14.0805C57.8591 13.2586 60.5664 12.8779 63.2495 12.8779C63.9988 12.8779 65.4673 12.9504 66.8874 13.452L66.972 13.4822C70.6825 14.8056 70.7248 17.8936 70.7248 18.0266V29.1821C70.7248 32.4514 67.9208 33.938 65.3162 33.938C60.8383 33.938 60.4939 30.1369 60.4939 28.9706C60.4939 25.6469 62.3974 23.7373 65.7211 23.7373C66.0051 23.7373 66.271 23.7433 66.543 23.7615V20.6372C65.6244 20.5526 64.718 20.5103 63.8599 20.5103C59.4061 20.5103 55.877 21.6403 53.9371 23.695C52.662 25.0426 52.0215 26.8132 52.0215 28.9645C52.0215 37.0985 59.5995 38.8087 65.9508 38.8087C71.9274 38.8087 75.3538 37.9627 77.4205 35.9685C79.5295 33.938 80.4662 30.3303 80.4662 24.2691C80.4662 13.6937 75.1423 7.62646 65.8601 7.62646V7.63251Z" fill="white"/>
<path id="Vector_3" d="M14.8866 7.57745H14.7838C8.94019 7.60163 5.01219 8.9311 2.76417 11.6384C0.939166 13.832 0.129395 16.9684 0.129395 21.8028V45.9509L9.14565 39.5634V18.3039C9.16983 17.5123 9.42968 15.5664 11.2547 14.2913C11.4118 14.1825 11.5629 14.0919 11.72 14.0133L12.282 13.6749L12.3545 13.7414C12.9105 13.548 13.5148 13.4513 14.1493 13.4513C16.6632 13.4513 18.6151 15.0467 19.2497 17.615C19.4914 18.5154 19.7875 20.4855 19.7875 23.0477C19.7875 25.8034 19.4672 27.1087 19.02 28.9095L18.9838 29.0606C18.4762 31.079 16.4276 33.2242 13.6175 33.2242C13.4967 33.2242 13.3758 33.2242 13.261 33.2061V37.6115C15.2794 38.4878 16.6632 38.669 18.1136 38.669C25.3109 38.669 28.9609 33.7258 28.9609 23.9783C28.9609 18.4912 27.994 14.5753 25.8185 12.0675C23.2743 9.13052 19.4914 7.57141 14.8866 7.57141V7.57745Z" fill="white"/>
<path id="Vector_4" d="M35.7959 6.77409V38.2041H45.1808V0.126709L35.7959 6.77409Z" fill="white"/>
<g id="Group">
<path id="Vector_5" d="M145.871 45.9998C158.573 45.9998 168.87 35.7024 168.87 22.9999C168.87 10.2974 158.573 0 145.871 0C133.168 0 122.871 10.2974 122.871 22.9999C122.871 35.7024 133.168 45.9998 145.871 45.9998Z" fill="#009DFF"/>
<path id="Vector_6" d="M156.372 8.11133H135.367V8.11737L141.023 12.1239V33.879L135.367 37.8855V37.8916H156.372V37.8855L150.716 33.879V12.1239L156.372 8.11737V8.11133Z" fill="white"/>
</g>
</g>
</svg>
